# xmcd
#
# Track frame offsets: 
#        150
#        15701
#        35696
#        53408
#        77742
#        96105
#        116311
#        134556
#        161507
#        181736
#
# Disc length: 2625 seconds
#
# Revision: 1
# Processed by: cddbd v1.5.2PL0 Copyright (c) Steve Scherf et al.
# Submitted via: ExactAudioCopy v1.0b1
#
DISCID=730a3f0a
DTITLE=Roy Trevińo - Roy Trevińo
DYEAR=2011
DGENRE=Blues
TTITLE0=Gloria
TTITLE1=The Boy Can Play
TTITLE2=Hurricanes
TTITLE3=Sin Ella
TTITLE4=Trinidad
TTITLE5=Lively Up Yourself
TTITLE6=La Luna
TTITLE7=Thank You
TTITLE8=Going Away
TTITLE9=Little Girl
EXTD=
EXTT0=
EXTT1=
EXTT2=
EXTT3=
EXTT4=
EXTT5=
EXTT6=
EXTT7=
EXTT8=
EXTT9=
PLAYORDER=
